<?xml version="1.0" standalone="no"?>
<!DOCTYPE svg PUBLIC "-//W3C//DTD SVG 20010904//EN"
 "http://www.w3.org/TR/2001/REC-SVG-20010904/DTD/svg10.dtd">
<svg version="1.0" xmlns="http://www.w3.org/2000/svg"
 width="512.000000pt" height="512.000000pt" viewBox="0 0 512.000000 512.000000"
 preserveAspectRatio="xMidYMid meet">
<metadata>
Created by potrace 1.14, written by Peter Selinger 2001-2017
</metadata>
<g transform="translate(0.000000,512.000000) scale(0.100000,-0.100000)"
fill="#000000" stroke="none">
<path d="M2347 5110 c-795 -72 -1490 -488 -1930 -1155 -91 -139 -208 -372
-265 -530 -190 -525 -199 -1107 -26 -1655 14 -44 29 -80 35 -80 5 0 19 9 31
20 12 11 30 20 40 20 10 0 18 4 18 9 0 5 12 14 28 20 15 5 74 35 131 66 57 30
110 55 117 55 8 0 14 5 14 10 0 6 7 10 15 10 13 0 100 36 147 61 10 5 25 9 33
9 8 0 15 5 15 10 0 6 9 10 20 10 10 0 36 7 57 16 21 9 47 20 58 24 11 4 31 12
45 18 77 34 394 128 468 139 18 3 35 9 38 14 3 5 18 9 35 9 16 0 37 4 47 9 9
5 53 15 97 22 44 7 103 16 130 21 28 5 77 12 110 16 86 11 80 6 228 176 10 12
46 52 80 89 34 38 63 72 65 77 2 5 -203 215 -455 468 -252 253 -463 466 -469
474 -69 90 -9 247 107 278 41 11 114 2 148 -20 8 -4 328 -322 711 -705 l696
-696 125 63 c68 35 126 66 127 71 2 4 9 7 15 7 6 0 93 41 194 92 155 77 191
92 231 92 75 -1 148 -49 174 -114 26 -66 2 -167 -48 -205 -25 -19 -217 -121
-426 -227 -54 -27 -98 -54 -98 -59 0 -9 52 -60 172 -170 38 -35 70 -42 65 -16
-1 7 10 13 26 15 15 2 27 7 27 11 0 4 25 20 56 36 31 16 63 40 71 52 9 13 22
23 29 23 8 0 14 5 14 10 0 6 9 10 19 10 12 0 21 9 25 26 7 25 9 26 57 20 27
-4 60 -11 72 -15 12 -5 40 -14 62 -20 61 -16 208 -61 230 -70 11 -5 31 -13 45
-19 14 -5 41 -17 62 -26 20 -9 41 -16 47 -16 6 0 19 -4 29 -9 9 -5 28 -14 42
-19 120 -52 144 -62 155 -62 8 0 15 -3 17 -8 2 -4 66 -39 143 -77 77 -39 142
-73 145 -76 3 -3 20 -12 38 -20 17 -8 32 -17 32 -21 0 -5 6 -8 14 -8 25 0 91
224 126 426 63 362 47 739 -44 1088 -33 125 -92 301 -116 345 -12 23 -6 25
-84 -40 -118 -100 -280 -168 -466 -196 -140 -21 -279 -7 -432 44 -60 19 -108
39 -108 44 0 5 -9 9 -19 9 -11 0 -21 3 -23 8 -1 4 -20 15 -40 26 -20 10 -45
26 -55 35 -10 9 -36 29 -58 46 -50 37 -72 59 -109 110 -17 22 -33 42 -37 45
-13 10 -76 116 -103 174 -46 99 -70 185 -86 309 -22 165 18 359 112 537 28 52
53 97 57 100 3 3 19 23 36 45 16 22 35 46 43 54 7 7 11 15 9 17 -13 13 -245
92 -353 119 -261 67 -607 97 -857 75z"/>
<path d="M2449 2299 c-24 -28 -66 -74 -92 -102 -59 -64 -91 -107 -80 -107 5 0
72 32 148 70 76 39 147 70 157 70 10 0 18 4 18 9 0 8 -96 111 -103 111 -2 0
-24 -23 -48 -51z"/>
<path d="M2873 1960 c-17 -15 -104 -60 -118 -60 -7 0 -15 -4 -17 -8 -1 -4
-115 -64 -253 -132 -137 -69 -251 -128 -253 -132 -2 -5 -9 -8 -15 -8 -15 0
-641 -313 -645 -322 -2 -5 -12 -8 -22 -8 -10 0 -22 -4 -25 -10 -9 -15 -98 -12
-137 4 -38 16 -98 68 -98 85 0 18 -17 13 -22 -7 -3 -10 -4 -32 -3 -50 1 -21
-3 -32 -12 -32 -16 0 -17 -12 -1 -28 9 -9 9 -12 0 -12 -7 0 -12 -8 -12 -18 0
-11 -12 -24 -26 -31 -25 -11 -25 -13 -10 -30 9 -10 16 -32 16 -49 0 -18 5 -32
10 -32 6 0 10 -7 10 -15 0 -18 -17 -20 -23 -2 -2 6 -8 8 -13 4 -5 -4 -2 -12 5
-16 7 -5 11 -13 8 -18 -4 -6 4 -8 18 -5 17 3 25 0 25 -10 0 -8 16 -31 37 -51
20 -20 31 -37 25 -37 -7 0 -12 -4 -12 -10 0 -5 9 -10 20 -10 11 0 20 6 20 13
0 6 9 -3 21 -22 21 -35 38 -37 20 -3 -14 27 -14 32 4 32 8 0 15 -4 15 -10 0
-5 7 -10 15 -10 11 0 14 -7 9 -25 -7 -28 -5 -29 29 -16 20 8 29 5 48 -12 18
-17 21 -18 16 -4 -4 10 -2 17 6 17 7 0 19 9 27 20 8 11 22 20 31 20 10 0 20 6
22 13 4 10 6 9 6 0 1 -7 10 -13 21 -13 11 0 20 -4 20 -10 0 -5 -4 -10 -10 -10
-5 0 -10 -4 -10 -10 0 -5 9 -10 20 -10 15 0 20 7 20 29 0 16 -6 32 -12 34 -10
4 -9 8 2 16 11 8 16 7 18 -4 4 -20 22 -19 22 0 0 8 7 15 16 15 8 0 13 4 10 9
-3 5 4 11 15 14 14 4 18 10 13 18 -5 9 -2 10 9 6 10 -3 17 -3 17 1 0 12 60 32
76 25 8 -3 14 0 14 5 0 6 9 14 20 17 11 3 20 13 20 22 0 10 6 13 16 9 16 -6
69 25 90 53 6 8 16 11 22 7 7 -4 12 -1 12 8 0 11 10 16 31 16 24 0 30 4 25 15
-4 10 1 15 15 15 11 0 17 5 14 10 -3 6 -1 10 4 10 6 0 11 -5 11 -12 0 -9 3 -9
12 0 7 7 20 12 30 12 11 0 15 5 12 14 -3 8 -1 17 5 21 6 3 11 1 11 -4 0 -6 5
-11 10 -11 6 0 10 6 10 14 0 15 10 20 66 31 20 4 34 14 37 26 3 12 14 19 29
19 27 0 68 33 68 55 0 8 5 15 10 15 6 0 10 -4 10 -10 0 -16 30 -12 36 5 4 8
12 15 20 15 8 0 19 9 26 20 7 11 23 20 35 20 16 0 21 4 17 15 -4 11 -2 13 9
10 8 -4 21 1 30 9 9 9 20 16 26 16 6 0 11 7 11 15 0 10 10 15 29 15 17 0 33 5
36 10 3 6 22 10 41 10 19 0 34 5 34 10 0 16 22 11 45 -10 13 -12 37 -21 59
-22 27 -1 35 -5 32 -15 -3 -7 12 -31 32 -51 21 -21 41 -46 45 -56 4 -9 20 -24
37 -34 19 -11 30 -25 30 -39 0 -14 6 -23 15 -23 8 0 15 -4 15 -10 0 -5 6 -10
14 -10 8 0 13 -8 12 -17 0 -10 5 -17 12 -15 9 2 12 -5 8 -20 -3 -13 -3 -17 0
-10 8 18 21 15 27 -8 3 -11 13 -20 22 -20 9 0 13 -5 10 -11 -4 -6 2 -13 14
-16 12 -3 21 -12 21 -19 0 -8 16 -29 36 -48 19 -18 35 -40 34 -47 -4 -25 0
-39 10 -39 5 0 7 7 3 16 -4 12 -2 15 8 12 8 -3 13 -15 12 -27 -2 -15 3 -21 17
-21 11 0 20 -7 20 -15 0 -9 16 -23 34 -32 29 -13 36 -23 38 -52 4 -36 4 -36
15 -11 10 22 12 23 14 5 1 -11 1 -23 0 -27 0 -5 4 -8 9 -8 6 0 10 7 10 15 0 9
9 15 22 15 17 0 19 -3 10 -12 -20 -20 -15 -58 7 -58 11 0 21 -6 24 -12 2 -7 3
13 2 44 -2 48 0 54 11 43 8 -7 14 -21 14 -30 0 -30 27 -45 80 -45 32 0 49 4
45 10 -3 6 -28 10 -56 10 -46 0 -49 2 -49 25 0 31 15 33 25 3 3 -13 9 -18 11
-11 3 7 11 10 18 7 8 -3 16 2 19 10 4 9 16 16 28 16 15 0 19 -4 15 -16 -3 -9
-3 -14 1 -12 5 2 25 10 46 18 20 8 37 18 37 22 0 4 5 8 11 8 6 0 8 -8 5 -18
-4 -13 -1 -19 9 -19 10 0 15 10 15 29 0 29 14 38 23 16 3 -7 6 -2 6 11 1 21
-2 23 -29 18 -17 -4 -30 -2 -30 3 0 6 5 10 11 10 6 0 18 7 26 16 14 13 14 17
2 26 -11 7 -11 11 -1 15 14 6 16 33 2 33 -18 0 -10 18 10 23 12 3 20 14 21 29
1 15 3 17 6 7 2 -11 11 -15 23 -12 18 5 18 6 -1 26 -10 11 -19 31 -19 44 0 15
-6 23 -16 23 -14 0 -14 3 -4 15 9 10 9 15 1 15 -6 0 -11 5 -11 10 0 6 7 10 15
10 22 0 18 18 -7 31 -16 9 -23 9 -26 0 -2 -6 -9 -11 -15 -11 -8 0 -7 4 1 12 7
7 12 23 11 37 0 15 -3 20 -6 14 -2 -7 -9 -13 -15 -13 -6 0 -8 7 -4 15 3 8 0
28 -6 43 -9 23 -12 24 -16 8 -5 -25 -42 -61 -87 -86 -43 -24 -108 -26 -159 -5
-23 10 -153 132 -370 349 -184 184 -338 330 -343 326z m913 -1067 c-11 -11
-17 4 -9 23 7 18 8 18 11 1 2 -10 1 -21 -2 -24z m-2286 7 c0 -5 -4 -10 -10
-10 -5 0 -10 5 -10 10 0 6 5 10 10 10 6 0 10 -4 10 -10z"/>
<path d="M3270 1110 c0 -5 5 -10 11 -10 5 0 7 5 4 10 -3 6 -8 10 -11 10 -2 0
-4 -4 -4 -10z"/>
<path d="M3926 1052 c-4 -7 -4 -16 -1 -22 3 -5 -1 -10 -10 -10 -9 0 -15 -5
-13 -12 6 -18 28 -22 28 -5 0 9 4 17 9 19 4 2 5 12 1 22 -4 14 -9 16 -14 8z"/>
<path d="M1266 945 c4 -8 8 -15 10 -15 2 0 4 7 4 15 0 8 -4 15 -10 15 -5 0 -7
-7 -4 -15z"/>
<path d="M3415 940 c-3 -5 1 -10 9 -10 9 0 16 5 16 10 0 6 -4 10 -9 10 -6 0
-13 -4 -16 -10z"/>
<path d="M4170 890 c0 -18 2 -19 20 -8 11 7 20 16 20 20 0 5 -9 8 -20 8 -13 0
-20 -7 -20 -20z"/>
<path d="M1317 893 c-4 -3 -7 -11 -7 -17 0 -6 5 -5 12 2 6 6 9 14 7 17 -3 3
-9 2 -12 -2z"/>
<path d="M1570 865 c0 -14 5 -25 10 -25 6 0 10 11 10 25 0 14 -4 25 -10 25 -5
0 -10 -11 -10 -25z"/>
<path d="M4140 879 c0 -5 5 -7 10 -4 6 3 10 8 10 11 0 2 -4 4 -10 4 -5 0 -10
-5 -10 -11z"/>
<path d="M4313 878 c-11 -12 -8 -19 12 -38 14 -13 25 -18 25 -12 0 7 -4 12 -9
12 -5 0 -11 12 -13 27 -3 22 -5 24 -15 11z"/>
<path d="M4400 879 c0 -5 5 -7 10 -4 6 3 10 8 10 11 0 2 -4 4 -10 4 -5 0 -10
-5 -10 -11z"/>
<path d="M1450 850 c0 -5 11 -10 25 -10 14 0 25 5 25 10 0 6 -11 10 -25 10
-14 0 -25 -4 -25 -10z"/>
<path d="M1640 850 c0 -5 5 -10 10 -10 6 0 10 5 10 10 0 6 -4 10 -10 10 -5 0
-10 -4 -10 -10z"/>
<path d="M3770 850 c0 -5 5 -10 10 -10 6 0 10 5 10 10 0 6 -4 10 -10 10 -5 0
-10 -4 -10 -10z"/>
<path d="M4120 850 c0 -5 5 -10 10 -10 6 0 10 5 10 10 0 6 -4 10 -10 10 -5 0
-10 -4 -10 -10z"/>
<path d="M4170 850 c0 -5 5 -10 11 -10 5 0 7 5 4 10 -3 6 -8 10 -11 10 -2 0
-4 -4 -4 -10z"/>
<path d="M4210 840 c0 -24 6 -25 25 -6 15 15 10 26 -12 26 -7 0 -13 -9 -13
-20z"/>
<path d="M4260 850 c0 -5 5 -10 10 -10 6 0 10 5 10 10 0 6 -4 10 -10 10 -5 0
-10 -4 -10 -10z"/>
<path d="M4380 842 c0 -11 7 -23 16 -26 25 -10 4 -28 -25 -21 -25 6 -25 6 -8
-12 16 -17 18 -16 48 14 23 22 30 37 25 49 -6 15 -9 16 -16 4 -7 -11 -11 -11
-24 -1 -14 12 -16 11 -16 -7z"/>
<path d="M3810 830 c0 -5 5 -10 10 -10 6 0 10 5 10 10 0 6 -4 10 -10 10 -5 0
-10 -4 -10 -10z"/>
<path d="M4070 830 c0 -5 7 -10 16 -10 8 0 12 5 9 10 -3 6 -10 10 -16 10 -5 0
-9 -4 -9 -10z"/>
<path d="M3956 811 c-4 -7 -5 -15 -2 -18 9 -9 19 4 14 18 -4 11 -6 11 -12 0z"/>
<path d="M4153 804 c-15 -15 -17 -54 -4 -54 7 0 23 60 17 66 0 1 -7 -4 -13
-12z"/>
<path d="M3695 790 c-3 -5 -1 -10 4 -10 6 0 11 5 11 10 0 6 -2 10 -4 10 -3 0
-8 -4 -11 -10z"/>
<path d="M4179 784 c-12 -15 -11 -16 11 -10 20 6 22 5 10 -4 -11 -9 -12 -13
-2 -17 14 -6 16 -33 2 -33 -5 0 -10 -6 -10 -13 0 -15 -81 -17 -92 -2 -4 5 -11
6 -15 1 -4 -5 -2 -11 5 -13 6 -3 12 -12 12 -22 0 -9 9 -23 20 -31 21 -15 27
-40 10 -40 -5 0 -10 7 -10 15 0 8 -6 15 -13 15 -7 0 -19 9 -27 20 -8 11 -22
20 -32 20 -9 0 -20 5 -24 12 -5 7 -11 3 -18 -13 l-10 -24 -4 30 c-2 16 -9 33
-15 37 -21 13 -47 9 -47 -8 0 -11 6 -14 20 -9 17 6 20 2 20 -29 0 -35 -20 -50
-35 -26 -3 6 -1 10 4 10 21 0 10 15 -20 29 -26 11 -33 11 -40 0 -4 -7 -12 -10
-16 -5 -4 5 -2 11 5 13 14 5 16 33 2 33 -5 0 -10 -6 -10 -14 0 -7 -7 -19 -15
-26 -10 -8 -13 -21 -9 -34 6 -20 6 -20 -13 2 -25 27 -33 28 -33 2 0 -13 -7
-20 -20 -20 -23 0 -26 10 -8 28 9 9 2 12 -33 12 -50 0 -69 -13 -69 -46 0 -12
-6 -24 -12 -26 -9 -3 -8 -10 5 -22 23 -23 17 -40 -14 -43 l-24 -3 23 10 c22 9
22 11 7 27 -14 13 -18 14 -25 2 -5 -7 -12 -10 -16 -6 -4 4 3 15 14 26 28 24
29 61 2 61 -11 0 -20 5 -20 11 0 5 -5 7 -10 4 -6 -4 -8 -11 -5 -16 10 -16 -48
-31 -100 -26 -27 3 -41 3 -30 0 20 -6 55 -40 55 -55 0 -13 -28 -9 -33 5 -2 7
-8 8 -13 3 -5 -5 -4 -11 4 -13 20 -7 14 -33 -8 -33 -15 0 -20 7 -20 26 0 22
-2 25 -15 14 -8 -7 -15 -17 -15 -22 0 -13 -26 -38 -39 -38 -6 0 -11 -5 -11
-12 0 -6 -3 -8 -7 -5 -3 4 2 16 12 27 18 20 18 20 -23 20 -40 0 -65 14 -40 22
9 3 8 9 -5 22 -9 10 -17 13 -17 7 0 -6 -9 -11 -20 -11 -11 0 -20 -4 -20 -10 0
-5 5 -10 12 -10 8 0 6 -6 -5 -17 -16 -16 -18 -16 -34 0 -11 11 -13 17 -5 17 7
0 12 5 12 10 0 21 -39 10 -43 -12 l-4 -23 -2 23 c-2 31 -14 28 -30 -9 -11 -25
-11 -33 -1 -39 11 -7 10 -11 -3 -24 -23 -24 -27 -20 -28 27 -1 23 -4 32 -6 20
-3 -16 -11 -23 -29 -23 -13 0 -24 5 -24 10 0 6 -11 10 -25 10 -16 0 -25 6 -25
15 0 8 -9 15 -20 15 -11 0 -20 -4 -20 -10 0 -5 5 -10 10 -10 6 0 10 -6 10 -14
0 -8 6 -16 13 -19 6 -2 9 -8 5 -12 -8 -9 -38 18 -38 34 0 6 -5 11 -11 11 -7 0
-9 11 -5 30 3 17 1 30 -4 30 -6 0 -10 -13 -10 -30 0 -23 -4 -30 -20 -30 -22 0
-27 16 -7 23 7 2 8 8 3 13 -5 5 -11 4 -13 -3 -7 -19 -31 -15 -45 7 -7 11 -16
20 -20 20 -13 0 -9 -38 5 -43 6 -3 -1 -10 -17 -16 -25 -10 -32 -9 -47 8 -11
11 -19 27 -19 36 0 8 -4 15 -10 15 -5 0 -10 -9 -10 -20 0 -12 -7 -20 -17 -20
-13 0 -14 -3 -6 -11 9 -9 9 -16 0 -30 -9 -15 -8 -21 8 -33 15 -12 16 -15 5
-16 -8 0 -21 9 -28 20 -11 19 -14 19 -28 5 -9 -8 -21 -15 -27 -14 -9 0 -8 2 1
6 21 8 13 23 -13 23 -14 0 -25 5 -25 10 0 6 6 10 14 10 7 0 19 7 26 15 10 13
9 15 -8 15 -11 0 -23 8 -25 18 -2 9 -3 5 -1 -10 2 -20 -1 -28 -11 -28 -8 0
-15 5 -15 10 0 6 -4 10 -10 10 -14 0 -12 -28 3 -33 7 -2 8 -8 3 -13 -5 -5 -11
-4 -13 4 -7 19 -23 14 -23 -8 0 -23 -15 -27 -23 -6 -3 8 1 17 9 20 8 3 14 16
14 30 0 13 6 26 13 29 6 2 8 8 4 13 -4 5 -12 2 -18 -6 -8 -13 -10 -13 -20 0
-8 12 -9 11 -5 -6 6 -21 -28 -64 -41 -51 -3 4 -1 7 5 7 7 0 12 5 12 10 0 6 -9
10 -20 10 -11 0 -20 5 -20 11 0 8 -5 8 -15 -1 -8 -7 -15 -23 -15 -36 0 -15 -6
-24 -15 -24 -8 0 -15 7 -15 15 0 14 -11 18 -52 18 -10 0 -18 4 -18 8 0 5 -4 9
-10 9 -5 0 -10 -6 -10 -14 0 -8 -6 -17 -12 -19 -10 -4 -9 -8 2 -16 8 -5 11
-14 6 -18 -5 -4 -11 -2 -13 5 -3 6 -11 12 -19 12 -8 0 -14 7 -14 15 0 8 -4 15
-10 15 -5 0 -10 -7 -10 -15 0 -16 -36 -21 -42 -6 -5 15 -91 17 -96 3 -4 -13
-32 -17 -32 -5 0 4 12 19 26 34 26 27 25 49 -2 49 -8 0 -14 -4 -14 -10 0 -5 5
-10 12 -10 9 0 9 -3 0 -12 -10 -10 -15 -10 -23 2 -8 12 -12 12 -16 2 -4 -10
-8 -10 -19 -1 -10 8 -14 8 -14 0 0 -6 -7 -11 -16 -11 -8 0 -22 -7 -30 -15 -8
-8 -22 -12 -32 -9 -14 5 -15 4 -2 -5 8 -5 11 -13 7 -17 -9 -9 -37 15 -37 32 0
8 -4 14 -10 14 -14 0 -12 -27 3 -33 8 -3 5 -11 -10 -24 -28 -25 -29 -33 -3
-33 17 0 20 -7 20 -49 l0 -50 33 11 c17 6 34 14 37 18 9 12 40 20 40 10 0 -6
-4 -10 -8 -10 -5 0 -19 -9 -32 -20 -17 -15 -36 -20 -74 -19 -28 1 -43 3 -33 6
23 6 25 88 2 97 -10 4 -13 14 -9 36 5 25 3 30 -12 32 -35 3 -58 -2 -65 -14 -6
-9 -11 -8 -23 1 -9 8 -16 9 -16 3 0 -6 6 -13 13 -16 10 -5 9 -7 0 -12 -7 -3
-13 -12 -13 -20 0 -29 -43 -3 -54 33 -4 12 -16 25 -27 28 -10 4 -19 11 -19 16
0 5 -7 9 -15 9 -8 0 -15 5 -15 10 0 6 -4 10 -10 10 -20 0 -9 -29 13 -32 14 -2
21 -9 18 -18 -15 -59 -15 -62 10 -56 13 3 18 3 11 0 -10 -5 -10 -9 -1 -20 20
-24 -3 -15 -27 11 -23 25 -54 34 -54 15 0 -19 -17 -10 -28 15 -7 15 -8 25 -2
25 6 0 10 9 10 20 0 23 -15 27 -24 5 -3 -8 -15 -15 -26 -15 -11 0 -20 -4 -20
-10 0 -5 5 -10 10 -10 15 0 12 -47 -2 -53 -9 -3 -7 -9 7 -20 19 -14 19 -16 2
-34 -23 -26 -22 -33 5 -33 12 0 19 -3 15 -6 -3 -3 -20 -3 -37 1 -25 5 -31 11
-27 26 6 22 -5 24 -33 7 -18 -11 -24 -9 -48 17 -16 17 -27 36 -24 43 3 9 -4
11 -25 7 l-28 -7 28 16 c25 14 31 14 43 1 8 -7 14 -18 13 -22 -4 -23 3 -33 26
-33 19 0 24 5 22 21 -1 12 4 24 11 26 6 3 12 -3 12 -12 0 -14 3 -15 15 -5 21
17 19 27 -10 58 -16 17 -21 30 -15 36 13 13 13 36 0 36 -5 0 -10 -9 -10 -19 0
-21 -19 -31 -56 -31 -13 0 -24 -4 -24 -10 0 -5 -7 -10 -16 -10 -8 0 -22 -7
-31 -15 -8 -8 -19 -13 -24 -9 -6 3 -17 0 -25 -7 -11 -9 -18 -9 -26 -1 -15 15
-58 16 -58 2 0 -5 7 -10 16 -10 12 0 15 -6 10 -25 -4 -14 -2 -25 4 -25 5 0 10
3 10 8 0 18 49 29 84 18 29 -9 36 -16 36 -36 0 -25 -16 -50 -32 -50 -4 0 -8
18 -8 40 0 29 -4 40 -15 40 -9 0 -15 -9 -15 -25 0 -18 -5 -25 -20 -25 -11 0
-20 5 -20 10 0 6 -4 10 -10 10 -19 0 -10 -16 19 -33 15 -9 31 -13 35 -9 4 4
12 -1 17 -11 6 -10 64 -44 130 -77 374 -188 735 -273 1154 -272 415 0 785 89
1154 277 190 97 500 309 509 349 2 8 12 16 23 19 11 3 23 15 26 26 3 12 14 21
24 21 10 0 21 5 24 10 4 6 -5 10 -19 10 -14 0 -26 -4 -26 -10 0 -15 -19 -12
-37 5 -10 10 -14 28 -11 50 3 31 1 35 -18 35 -12 0 -28 -7 -35 -16z m51 -89
c0 -18 -5 -25 -19 -25 -17 0 -18 3 -8 25 15 32 27 32 27 0z m-60 -9 c0 -2 -3
-11 -6 -20 -9 -23 -24 -20 -24 4 0 11 7 20 15 20 8 0 15 -2 15 -4z m-250 -30
c0 -8 -4 -18 -10 -21 -5 -3 -10 3 -10 14 0 12 5 21 10 21 6 0 10 -6 10 -14z
m-200 -15 c0 -5 9 -11 20 -14 11 -3 20 -10 20 -16 0 -17 -40 -13 -46 4 -4 10
-13 13 -25 10 -13 -4 -19 -1 -19 9 0 10 9 16 25 16 14 0 25 -4 25 -9z m160 -1
c0 -5 -4 -10 -10 -10 -5 0 -10 5 -10 10 0 6 5 10 10 10 6 0 10 -4 10 -10z
m211 -20 c5 0 9 -4 9 -10 0 -16 -26 -12 -41 7 -12 15 -12 16 4 10 10 -4 23 -7
28 -7z m-511 -32 c0 -5 -7 -3 -15 6 -8 8 -15 18 -15 22 0 3 7 1 15 -6 8 -7 15
-17 15 -22z m280 22 c0 -5 -5 -10 -11 -10 -5 0 -7 5 -4 10 3 6 8 10 11 10 2 0
4 -4 4 -10z m140 0 c0 -5 -7 -10 -15 -10 -8 0 -15 5 -15 10 0 6 7 10 15 10 8
0 15 -4 15 -10z m-1967 -79 c-4 -3 -10 -9 -13 -12 -3 -4 -10 -1 -17 6 -9 10
-6 13 13 13 14 0 21 -3 17 -7z m414 -13 c-3 -8 -6 -5 -6 6 -1 11 2 17 5 13 3
-3 4 -12 1 -19z m489 -8 c1 -14 -1 -19 -3 -12 -3 6 -16 12 -30 12 -13 0 -30 6
-37 13 -10 10 -5 12 28 12 37 0 41 -3 42 -25z m594 15 c0 -8 -4 -15 -10 -15
-5 0 -10 7 -10 15 0 8 5 15 10 15 6 0 10 -7 10 -15z m-1700 -5 c0 -5 -4 -10
-10 -10 -5 0 -10 5 -10 10 0 6 5 10 10 10 6 0 10 -4 10 -10z m160 -6 c0 -2 -9
-4 -21 -4 -11 0 -18 4 -14 10 5 8 35 3 35 -6z m1335 6 c3 -5 1 -10 -4 -10 -6
0 -11 5 -11 10 0 6 2 10 4 10 3 0 8 -4 11 -10z m-1890 -20 c3 -5 -3 -10 -15
-10 -12 0 -18 5 -15 10 3 6 10 10 15 10 5 0 12 -4 15 -10z m245 0 c0 -5 -4
-10 -10 -10 -5 0 -10 5 -10 10 0 6 5 10 10 10 6 0 10 -4 10 -10z m500 0 c0 -5
-4 -10 -10 -10 -5 0 -10 5 -10 10 0 6 5 10 10 10 6 0 10 -4 10 -10z m640 0 c0
-5 -4 -10 -10 -10 -5 0 -10 5 -10 10 0 6 5 10 10 10 6 0 10 -4 10 -10z m50
-26 c0 -3 -7 -1 -15 6 -8 7 -15 17 -15 22 0 5 7 3 15 -6 8 -8 15 -18 15 -22z
m350 26 c0 -5 -4 -10 -10 -10 -5 0 -10 5 -10 10 0 6 5 10 10 10 6 0 10 -4 10
-10z m242 -14 c4 -17 1 -23 -9 -19 -14 6 -18 43 -4 43 5 0 11 -11 13 -24z
m128 20 c0 -3 -4 -8 -10 -11 -5 -3 -10 -1 -10 4 0 6 5 11 10 11 6 0 10 -2 10
-4z m-1655 -26 c-3 -5 -12 -7 -20 -3 -21 7 -19 13 6 13 11 0 18 -4 14 -10z
m150 0 c3 -5 -1 -10 -10 -10 -9 0 -13 5 -10 10 3 6 8 10 10 10 2 0 7 -4 10
-10z m310 0 c3 -5 -3 -10 -14 -10 -12 0 -21 5 -21 10 0 6 6 10 14 10 8 0 18
-4 21 -10z m660 0 c3 -5 -1 -10 -10 -10 -9 0 -13 5 -10 10 3 6 8 10 10 10 2 0
7 -4 10 -10z m205 6 c0 -3 -4 -8 -10 -11 -5 -3 -10 -1 -10 4 0 6 5 11 10 11 6
0 10 -2 10 -4z m-1316 -50 c-6 -15 -24 -23 -24 -11 0 8 24 34 28 30 1 -1 0
-10 -4 -19z m-166 -19 c6 -5 12 -15 11 -21 0 -7 -2 -6 -6 2 -3 7 -24 12 -54
12 -41 0 -49 3 -49 19 0 17 4 18 43 8 23 -5 48 -14 55 -20z m378 18 c4 -8 3
-23 -2 -32 -6 -15 -8 -14 -12 7 -2 14 -9 28 -16 32 -7 5 -5 8 7 8 10 0 20 -7
23 -15z m-547 -35 c4 -32 4 -33 10 -10 7 27 41 41 41 17 0 -9 -6 -18 -12 -20
-10 -4 -9 -8 2 -16 11 -8 3 -9 -29 -5 -52 6 -90 23 -53 24 12 0 22 5 22 10 0
6 -4 10 -10 10 -5 0 -10 7 -10 16 0 9 7 14 18 12 11 -2 18 -15 21 -38z m625
34 c23 -9 20 -24 -4 -24 -11 0 -20 7 -20 15 0 17 2 18 24 9z m86 -10 c0 -8 -5
-12 -10 -9 -6 4 -8 11 -5 16 9 14 15 11 15 -7z m-223 -46 c-2 -13 -4 -5 -4 17
-1 22 1 32 4 23 2 -10 2 -28 0 -40z m-257 -1 c0 -4 -7 -2 -15 7 -8 8 -15 21
-15 28 1 14 30 -20 30 -35z m200 24 c0 -5 -7 -11 -14 -14 -10 -4 -13 -1 -9 9
6 15 23 19 23 5z m-665 -22 c11 -17 -1 -21 -15 -4 -8 9 -8 15 -2 15 6 0 14 -5
17 -11z m335 -10 c0 -5 -4 -9 -10 -9 -5 0 -10 7 -10 16 0 8 5 12 10 9 6 -3 10
-10 10 -16z m70 -8 c0 -6 -4 -13 -10 -16 -5 -3 -10 1 -10 9 0 9 5 16 10 16 6
0 10 -4 10 -9z m544 -6 c-4 -8 -10 -12 -15 -9 -14 8 -10 24 6 24 9 0 12 -6 9
-15z m76 1 c0 -11 -19 -15 -25 -6 -3 5 1 10 9 10 9 0 16 -2 16 -4z m-170 -26
c0 -5 -5 -10 -11 -10 -5 0 -7 5 -4 10 3 6 8 10 11 10 2 0 4 -4 4 -10z m-310
-14 c0 -3 -4 -8 -10 -11 -5 -3 -10 -1 -10 4 0 6 5 11 10 11 6 0 10 -2 10 -4z"/>
<path d="M4288 793 c-20 -5 -22 -12 -8 -33 8 -13 11 -12 24 5 13 17 15 17 16
4 0 -20 26 -44 34 -31 5 9 -34 63 -44 61 -3 -1 -13 -3 -22 -6z"/>
<path d="M3732 720 c-15 -25 -15 -30 1 -30 19 0 36 20 30 36 -7 19 -16 17 -31
-6z"/>
<path d="M3790 730 c0 -5 5 -10 10 -10 6 0 10 -7 10 -15 0 -8 7 -15 15 -15 19
0 19 2 -4 28 -20 24 -31 28 -31 12z"/>
<path d="M4160 730 c0 -5 5 -10 10 -10 6 0 10 5 10 10 0 6 -4 10 -10 10 -5 0
-10 -4 -10 -10z"/>
<path d="M3575 700 c-3 -5 -1 -10 4 -10 6 0 11 5 11 10 0 6 -2 10 -4 10 -3 0
-8 -4 -11 -10z"/>
<path d="M3512 671 c-1 -16 2 -32 8 -36 5 -3 10 3 10 14 0 10 6 22 13 24 9 4
8 8 -3 16 -22 16 -26 14 -28 -18z"/>
<path d="M3240 660 c0 -5 5 -10 11 -10 5 0 7 -4 4 -10 -3 -5 -1 -10 4 -10 13
0 13 3 5 24 -7 18 -24 22 -24 6z"/>
<path d="M3480 660 c0 -5 5 -10 10 -10 6 0 10 5 10 10 0 6 -4 10 -10 10 -5 0
-10 -4 -10 -10z"/>
<path d="M3310 639 c0 -5 5 -7 10 -4 6 3 10 8 10 11 0 2 -4 4 -10 4 -5 0 -10
-5 -10 -11z"/>
<path d="M2610 630 c0 -5 5 -10 11 -10 5 0 7 5 4 10 -3 6 -8 10 -11 10 -2 0
-4 -4 -4 -10z"/>
<path d="M1295 610 c-3 -5 -1 -10 4 -10 6 0 11 5 11 10 0 6 -2 10 -4 10 -3 0
-8 -4 -11 -10z"/>
<path d="M1430 610 c0 -5 5 -10 10 -10 6 0 10 5 10 10 0 6 -4 10 -10 10 -5 0
-10 -4 -10 -10z"/>
<path d="M1485 610 c-3 -5 -1 -10 4 -10 6 0 11 5 11 10 0 6 -2 10 -4 10 -3 0
-8 -4 -11 -10z"/>
<path d="M1760 610 c0 -5 5 -10 10 -10 6 0 10 5 10 10 0 6 -4 10 -10 10 -5 0
-10 -4 -10 -10z"/>
<path d="M3060 610 c0 -5 5 -10 11 -10 5 0 7 5 4 10 -3 6 -8 10 -11 10 -2 0
-4 -4 -4 -10z"/>
<path d="M3240 610 c0 -5 7 -10 15 -10 8 0 15 5 15 10 0 6 -7 10 -15 10 -8 0
-15 -4 -15 -10z"/>
<path d="M1192 580 c0 -14 2 -19 5 -12 2 6 2 18 0 25 -3 6 -5 1 -5 -13z"/>
<path d="M1260 590 c0 -5 5 -10 11 -10 5 0 7 5 4 10 -3 6 -8 10 -11 10 -2 0
-4 -4 -4 -10z"/>
<path d="M1790 590 c0 -5 9 -10 20 -10 11 0 20 5 20 10 0 6 -9 10 -20 10 -11
0 -20 -4 -20 -10z"/>
<path d="M1950 590 c0 -5 5 -10 10 -10 6 0 10 5 10 10 0 6 -4 10 -10 10 -5 0
-10 -4 -10 -10z"/>
<path d="M2120 595 c0 -11 48 -54 53 -48 3 3 -5 16 -18 29 -24 23 -35 30 -35
19z"/>
<path d="M2850 590 c0 -5 5 -10 10 -10 6 0 10 5 10 10 0 6 -4 10 -10 10 -5 0
-10 -4 -10 -10z"/>
<path d="M2980 590 c0 -5 5 -10 10 -10 6 0 10 5 10 10 0 6 -4 10 -10 10 -5 0
-10 -4 -10 -10z"/>
<path d="M3330 591 c0 -5 7 -14 15 -21 13 -10 15 -9 15 9 0 12 -6 21 -15 21
-8 0 -15 -4 -15 -9z"/>
<path d="M1362 563 c5 -26 38 -29 38 -4 0 15 -6 21 -21 21 -14 0 -19 -5 -17
-17z"/>
<path d="M1555 570 c3 -5 8 -10 11 -10 2 0 4 5 4 10 0 6 -5 10 -11 10 -5 0 -7
-4 -4 -10z"/>
<path d="M1710 566 c0 -8 5 -18 10 -21 6 -3 10 3 10 14 0 12 -4 21 -10 21 -5
0 -10 -6 -10 -14z"/>
<path d="M1760 569 c0 -5 5 -7 10 -4 6 3 10 8 10 11 0 2 -4 4 -10 4 -5 0 -10
-5 -10 -11z"/>
<path d="M2350 570 c0 -5 9 -10 20 -10 11 0 20 5 20 10 0 6 -9 10 -20 10 -11
0 -20 -4 -20 -10z"/>
<path d="M3025 560 c10 -11 20 -18 23 -16 5 6 -23 36 -34 36 -4 0 1 -9 11 -20z"/>
<path d="M2780 556 c0 -9 5 -16 10 -16 6 0 10 4 10 9 0 6 -4 13 -10 16 -5 3
-10 -1 -10 -9z"/>
<path d="M1242 535 c-24 -27 -28 -45 -12 -45 6 0 10 5 10 10 0 6 10 10 21 10
17 0 19 3 10 13 -8 10 -7 17 1 25 7 7 8 12 2 12 -6 0 -20 -11 -32 -25z"/>
<path d="M1330 545 c0 -8 5 -15 10 -15 6 0 10 7 10 15 0 8 -4 15 -10 15 -5 0
-10 -7 -10 -15z"/>
<path d="M2671 544 c0 -11 3 -14 6 -6 3 7 2 16 -1 19 -3 4 -6 -2 -5 -13z"/>
<path d="M1103 513 c-31 -6 -29 -23 1 -23 13 0 26 -6 29 -12 2 -7 8 -9 13 -5
5 4 2 12 -5 16 -7 5 -10 14 -7 20 4 6 4 10 -1 10 -4 -1 -18 -4 -30 -6z"/>
<path d="M1550 500 c0 -5 5 -10 10 -10 6 0 10 5 10 10 0 6 -4 10 -10 10 -5 0
-10 -4 -10 -10z"/>
<path d="M1715 500 c-3 -5 -1 -10 4 -10 6 0 11 5 11 10 0 6 -2 10 -4 10 -3 0
-8 -4 -11 -10z"/>
<path d="M1130 450 c0 -5 5 -10 11 -10 5 0 7 5 4 10 -3 6 -8 10 -11 10 -2 0
-4 -4 -4 -10z"/>
</g>
</svg>
