<svg width="40" height="40" viewBox="0 0 40 40" fill="none" xmlns="http://www.w3.org/2000/svg">
<path d="M10.09 8C10.5362 7.94206 10.9887 8.04105 11.37 8.28L24.37 15.67L21.08 19L10.09 8ZM9.09 9C9.02731 9.21771 8.99698 9.44346 9 9.67V30.33C8.99698 30.5565 9.02731 30.7823 9.09 31L20.09 20L9.09 9ZM21.09 21L10.09 32C10.5364 32.0632 10.9907 31.9638 11.37 31.72L24.37 24.33L21.09 21ZM29.61 18.66L25.67 16.42L22.07 20L25.66 23.59L29.6 21.35C30.9 20.61 30.9 19.39 29.6 18.65L29.61 18.66Z" fill="black"/>
</svg>
