<svg width="126" height="126" viewBox="0 0 126 126" fill="none" xmlns="http://www.w3.org/2000/svg">
<path d="M42.8904 15.1201H83.1096C98.4312 15.1201 110.88 27.5689 110.88 42.8905V83.1097C110.88 90.4749 107.954 97.5384 102.746 102.746C97.5383 107.954 90.4748 110.88 83.1096 110.88H42.8904C27.5688 110.88 15.12 98.4313 15.12 83.1097V42.8905C15.12 35.5253 18.0458 28.4618 23.2538 23.2539C28.4617 18.0459 35.5252 15.1201 42.8904 15.1201V15.1201ZM41.9328 24.6961C37.3613 24.6961 32.9771 26.5121 29.7445 29.7447C26.512 32.9772 24.696 37.3614 24.696 41.9329V84.0673C24.696 93.5954 32.4047 101.304 41.9328 101.304H84.0672C88.6387 101.304 93.0229 99.4881 96.2555 96.2556C99.488 93.023 101.304 88.6388 101.304 84.0673V41.9329C101.304 32.4048 93.5953 24.6961 84.0672 24.6961H41.9328ZM88.137 31.8781C89.7243 31.8781 91.2466 32.5087 92.369 33.6311C93.4914 34.7535 94.122 36.2758 94.122 37.8631C94.122 39.4504 93.4914 40.9727 92.369 42.0951C91.2466 43.2176 89.7243 43.8481 88.137 43.8481C86.5497 43.8481 85.0274 43.2176 83.905 42.0951C82.7825 40.9727 82.152 39.4504 82.152 37.8631C82.152 36.2758 82.7825 34.7535 83.905 33.6311C85.0274 32.5087 86.5497 31.8781 88.137 31.8781ZM63 39.0601C69.3493 39.0601 75.4385 41.5824 79.9281 46.072C84.4178 50.5616 86.94 56.6508 86.94 63.0001C86.94 69.3494 84.4178 75.4386 79.9281 79.9282C75.4385 84.4179 69.3493 86.9401 63 86.9401C56.6507 86.9401 50.5615 84.4179 46.0719 79.9282C41.5822 75.4386 39.06 69.3494 39.06 63.0001C39.06 56.6508 41.5822 50.5616 46.0719 46.072C50.5615 41.5824 56.6507 39.0601 63 39.0601V39.0601ZM63 48.6361C59.1904 48.6361 55.5369 50.1495 52.8431 52.8432C50.1493 55.537 48.636 59.1905 48.636 63.0001C48.636 66.8097 50.1493 70.4632 52.8431 73.157C55.5369 75.8508 59.1904 77.3641 63 77.3641C66.8096 77.3641 70.4631 75.8508 73.1569 73.157C75.8507 70.4632 77.364 66.8097 77.364 63.0001C77.364 59.1905 75.8507 55.537 73.1569 52.8432C70.4631 50.1495 66.8096 48.6361 63 48.6361Z" fill="#9C27B0"/>
</svg>
