<svg width="126" height="126" viewBox="0 0 126 126" fill="none" xmlns="http://www.w3.org/2000/svg">
<path d="M112.765 37.1479C112.841 38.2541 112.841 39.3604 112.841 40.4769C112.841 74.4961 87.0314 113.731 39.8373 113.731V113.71C25.896 113.731 12.2443 109.724 0.508057 102.168C2.53523 102.413 4.57257 102.535 6.61499 102.54C18.1684 102.551 29.3915 98.6608 38.4808 91.4981C27.5015 91.289 17.8737 84.1059 14.5103 73.6192C18.3564 74.3636 22.3193 74.2106 26.0942 73.1757C14.1242 70.749 5.51249 60.1961 5.51249 47.9404C5.51249 47.8283 5.51249 47.7212 5.51249 47.6141C9.07911 49.6075 13.0725 50.7138 17.1573 50.8361C5.88338 43.2757 2.40822 28.2263 9.21628 16.46C22.2431 32.5443 41.4631 42.3224 62.0956 43.3573C60.0278 34.4153 62.8527 25.0451 69.5185 18.7592C79.8525 9.01179 96.1055 9.5114 105.82 19.8757C111.566 18.7389 117.073 16.6232 122.113 13.6255C120.198 19.5851 116.189 24.6475 110.834 27.8643C115.92 27.2628 120.889 25.8965 125.568 23.8114C122.123 28.991 117.785 33.5028 112.765 37.1479Z" fill="#1D9BF0"/>
</svg>
