<svg width="24" height="24" viewBox="0 0 24 24" fill="none" xmlns="http://www.w3.org/2000/svg">
<path d="M5.17073 12C5.17073 8.2283 8.2283 5.17073 12 5.17073C12.8582 5.17073 13.681 5.32957 14.4395 5.61971L15.3703 4.68876C14.3456 4.21551 13.2045 3.95122 12 3.95122C7.55478 3.95122 3.95122 7.55478 3.95122 12C3.95122 16.4452 7.55478 20.0488 12 20.0488C13.2045 20.0488 14.3456 19.7844 15.3703 19.3111L14.4395 18.3802C13.681 18.6703 12.8583 18.8293 12 18.8293C8.2283 18.8293 5.17073 15.7717 5.17073 12ZM20.0488 12C20.0488 10.7954 19.7844 9.65428 19.3111 8.62955L18.3802 9.56038C18.6703 10.3189 18.8293 11.1417 18.8293 12C18.8293 12.8583 18.6703 13.681 18.3802 14.4395L19.3111 15.3703C19.7844 14.3456 20.0488 13.2045 20.0488 12ZM7.12195 12C7.12195 14.6941 9.30593 16.878 12 16.878C12.7988 16.878 13.5501 16.6868 14.2132 16.3484L14.2487 16.3313C14.6183 16.1611 15.0567 16.238 15.3464 16.5277L17.6616 18.8427C17.8687 19.0498 17.9718 19.3391 17.9424 19.6305C17.913 19.922 17.7542 20.1848 17.5098 20.3464C15.9295 21.3915 14.0343 22 12 22C6.47715 22 2 17.5228 2 12C2 6.47715 6.47715 2 12 2C14.0343 2 15.9295 2.60847 17.5098 3.65361C17.7542 3.81519 17.913 4.07804 17.9424 4.36947C17.9718 4.6609 17.8687 4.95016 17.6616 5.15727L15.3464 7.47232C15.0474 7.7713 14.5899 7.84369 14.2132 7.65156C13.5501 7.31323 12.7988 7.12195 12 7.12195C9.30593 7.12195 7.12195 9.30593 7.12195 12ZM22 12C22 14.0343 21.3915 15.9295 20.3464 17.5098C20.1848 17.7542 19.922 17.913 19.6305 17.9424C19.3391 17.9718 19.0498 17.8687 18.8427 17.6616L16.5277 15.3464C16.2287 15.0474 16.1563 14.5899 16.3484 14.2132C16.6868 13.5501 16.878 12.7988 16.878 12C16.878 11.2012 16.6868 10.4499 16.3484 9.78678C16.1563 9.41013 16.2287 8.95259 16.5277 8.65361L18.8427 6.33844C19.0498 6.13133 19.3391 6.02822 19.6305 6.05762C19.922 6.08702 20.1848 6.24585 20.3464 6.49016C21.3915 8.07048 22 9.96567 22 12Z" fill="#e3e3e3"/>
</svg>
