<svg width="48" height="48" viewBox="0 0 48 48" fill="none" xmlns="http://www.w3.org/2000/svg">
<g filter="url(#filter0_f)">
<path fill-rule="evenodd" clip-rule="evenodd" d="M10.7933 10.4035C10.6462 10.3995 10.501 10.4375 10.3748 10.5132C10.2487 10.5889 10.1468 10.6991 10.0811 10.8308C10.0155 10.9625 9.9888 11.1102 10.0043 11.2565C10.0198 11.4028 10.0768 11.5417 10.1685 11.6567L12.3938 14.5369C12.3154 14.7426 12.2684 14.9639 12.2684 15.1978V17.6679V19.4373V19.5205C12.2684 20.5468 13.0946 21.3731 14.1209 21.3731H33.8817C34.908 21.3731 35.7343 20.5468 35.7343 19.5205V17.0504V15.2811V15.1978C35.7343 14.963 35.6867 14.7409 35.6076 14.5345L37.8317 11.6567C37.9246 11.5401 37.9818 11.3992 37.9963 11.2509C38.0109 11.1025 37.9822 10.9532 37.9137 10.8208C37.8452 10.6884 37.7399 10.5787 37.6104 10.5049C37.4809 10.431 37.3328 10.3963 37.184 10.4048C37.0717 10.4111 36.9621 10.4419 36.8629 10.495C36.7638 10.5481 36.6774 10.6223 36.6099 10.7123L34.4908 13.455C34.2992 13.3884 34.0966 13.3452 33.8817 13.3452H14.1209C13.9057 13.3452 13.7025 13.3879 13.5106 13.455L11.3903 10.7123C11.3205 10.6192 11.2305 10.543 11.1272 10.4895C11.0238 10.4361 10.9096 10.4067 10.7933 10.4035ZM14.1209 21.9906C13.9926 21.9906 13.8678 22.0035 13.747 22.0282C12.9013 22.1987 12.2684 22.9359 12.2684 23.8253V23.8432V36.0574V36.0753V36.1935C12.2684 37.2199 13.0946 38.0461 14.1209 38.0461H33.8817C34.908 38.0461 35.7343 37.2199 35.7343 36.1935V23.843V23.8251C35.7343 22.9357 35.1013 22.1986 34.2556 22.0281C34.1348 22.004 34.01 21.9904 33.8817 21.9904H14.1209V21.9906Z" fill="#263238" fill-opacity="0.4"/>
</g>
<path fill-rule="evenodd" clip-rule="evenodd" d="M37.2217 10.7206L34.5972 14.117L37.2217 10.7206Z" fill="#8AB000"/>
<path d="M37.2217 10.7206L34.5972 14.117" stroke="#769616" stroke-width="2.5" stroke-linecap="round"/>
<path fill-rule="evenodd" clip-rule="evenodd" d="M37.2079 9.94693C37.4879 9.95434 37.6783 10.0636 37.8135 10.224C36.5618 11.7115 36.351 11.9479 34.6422 14.0658C34.0127 14.8804 33.3568 14.4594 33.9864 13.6449L36.6109 10.2485C36.7523 10.0598 36.9722 9.95329 37.2079 9.94693Z" fill="white" fill-opacity="0.298039"/>
<path fill-rule="evenodd" clip-rule="evenodd" d="M37.8188 10.2317C37.8953 10.323 38.1653 10.7286 37.8326 11.1927L35.2082 14.5891C34.5786 15.4036 34.4981 14.211 34.4981 14.211C34.4981 14.211 36.8042 11.4259 37.8188 10.2317Z" fill="#263238" fill-opacity="0.2"/>
<path fill-rule="evenodd" clip-rule="evenodd" d="M37.3767 10.092C37.6473 10.092 37.9695 10.1794 37.8857 10.5851C37.8218 10.8949 35.0075 14.3362 35.0075 14.3362C34.378 15.1508 33.4678 14.7539 34.0973 13.9395L36.7122 10.56C36.8729 10.3809 37.088 10.1008 37.3767 10.092Z" fill="#8AB000"/>
<path fill-rule="evenodd" clip-rule="evenodd" d="M10.7781 10.7206L13.4026 14.117L10.7781 10.7206Z" fill="#8AB000"/>
<path d="M10.7781 10.7206L13.4026 14.117" stroke="#769616" stroke-width="2.5" stroke-linecap="round"/>
<path fill-rule="evenodd" clip-rule="evenodd" d="M10.792 9.94693C10.5119 9.95434 10.3216 10.0636 10.1863 10.224C11.438 11.7115 11.6489 11.9479 13.3576 14.0658C13.9872 14.8804 14.6431 14.4594 14.0135 13.6449L11.389 10.2485C11.2476 10.0598 11.0277 9.95329 10.792 9.94693Z" fill="white" fill-opacity="0.298039"/>
<path fill-rule="evenodd" clip-rule="evenodd" d="M10.1811 10.2317C10.1046 10.323 9.83456 10.7286 10.1672 11.1927L12.7917 14.5891C13.4213 15.4036 13.5018 14.211 13.5018 14.211C13.5018 14.211 11.1956 11.4259 10.1811 10.2317Z" fill="#263238" fill-opacity="0.2"/>
<path fill-rule="evenodd" clip-rule="evenodd" d="M10.6231 10.092C10.3525 10.092 10.0304 10.1794 10.1141 10.5851C10.1781 10.8949 12.9923 14.3362 12.9923 14.3362C13.6219 15.1508 14.5321 14.7539 13.9025 13.9395L11.2877 10.56C11.127 10.3809 10.9119 10.1008 10.6231 10.092Z" fill="#8AB000"/>
<path d="M33.8804 12.8819H14.1196C13.0965 12.8819 12.267 13.7113 12.267 14.7345V19.0572C12.267 20.0803 13.0965 20.9097 14.1196 20.9097H33.8804C34.9035 20.9097 35.733 20.0803 35.733 19.0572V14.7345C35.733 13.7113 34.9035 12.8819 33.8804 12.8819Z" fill="#AEEA00"/>
<path d="M33.8804 14.7345H14.1196C13.0965 14.7345 12.267 15.5639 12.267 16.5871V19.0572C12.267 20.0803 13.0965 20.9097 14.1196 20.9097H33.8804C34.9035 20.9097 35.733 20.0803 35.733 19.0572V16.5871C35.733 15.5639 34.9035 14.7345 33.8804 14.7345Z" fill="#263238" fill-opacity="0.2"/>
<path d="M33.8804 12.8819H14.1196C13.0965 12.8819 12.267 13.7113 12.267 14.7345V17.2046C12.267 18.2277 13.0965 19.0572 14.1196 19.0572H33.8804C34.9035 19.0572 35.733 18.2277 35.733 17.2046V14.7345C35.733 13.7113 34.9035 12.8819 33.8804 12.8819Z" fill="white" fill-opacity="0.298039"/>
<path d="M33.8804 13.4994H14.1196C13.0965 13.4994 12.267 14.2012 12.267 15.067V18.7246C12.267 19.5904 13.0965 20.2922 14.1196 20.2922H33.8804C34.9035 20.2922 35.733 19.5904 35.733 18.7246V15.067C35.733 14.2012 34.9035 13.4994 33.8804 13.4994Z" fill="#AEEA00"/>
<path d="M33.8804 21.5273H14.1196C13.0965 21.5273 12.267 22.3567 12.267 23.3798V35.7303C12.267 36.7535 13.0965 37.5829 14.1196 37.5829H33.8804C34.9035 37.5829 35.733 36.7535 35.733 35.7303V23.3798C35.733 22.3567 34.9035 21.5273 33.8804 21.5273Z" fill="#1976D2"/>
<path d="M33.8804 29.5551H14.1196C13.0965 29.5551 12.267 30.3845 12.267 31.4076V35.7303C12.267 36.7535 13.0965 37.5829 14.1196 37.5829H33.8804C34.9035 37.5829 35.733 36.7535 35.733 35.7303V31.4076C35.733 30.3845 34.9035 29.5551 33.8804 29.5551Z" fill="#263238" fill-opacity="0.2"/>
<path d="M33.8804 21.5273H14.1196C13.0965 21.5273 12.267 22.3567 12.267 23.3798V27.7025C12.267 28.7256 13.0965 29.5551 14.1196 29.5551H33.8804C34.9035 29.5551 35.733 28.7256 35.733 27.7025V23.3798C35.733 22.3567 34.9035 21.5273 33.8804 21.5273Z" fill="white" fill-opacity="0.2"/>
<path d="M33.8804 22.1448H14.1196C13.0965 22.1448 12.267 22.9104 12.267 23.8549V35.2553C12.267 36.1998 13.0965 36.9654 14.1196 36.9654H33.8804C34.9035 36.9654 35.733 36.1998 35.733 35.2553V23.8549C35.733 22.9104 34.9035 22.1448 33.8804 22.1448Z" fill="#1976D2"/>
<path d="M24 25.6955C22.2211 25.6955 20.7149 26.9211 20.2744 28.5672H22.2584C22.6007 27.9588 23.2434 27.5481 24 27.5481C25.1194 27.5481 26.007 28.4357 26.007 29.555C26.007 30.6744 25.1194 31.562 24 31.562C23.1927 31.562 22.511 31.0972 22.1908 30.4198H20.243C20.6396 32.1277 22.177 33.4146 24 33.4146C26.1206 33.4146 27.8595 31.6756 27.8595 29.555C27.8595 27.4345 26.1206 25.6955 24 25.6955Z" fill="#0D47A1"/>
<path d="M24 35.4524C27.257 35.4524 29.8974 32.8121 29.8974 29.555C29.8974 26.298 27.257 23.6577 24 23.6577C20.743 23.6577 18.1026 26.298 18.1026 29.555C18.1026 32.8121 20.743 35.4524 24 35.4524Z" stroke="#0D47A1" stroke-width="1.9" stroke-linecap="round"/>
<path d="M18.0563 19.3659C19.2074 19.3659 20.1405 18.2946 20.1405 16.973C20.1405 15.6514 19.2074 14.5801 18.0563 14.5801C16.9053 14.5801 15.9722 15.6514 15.9722 16.973C15.9722 18.2946 16.9053 19.3659 18.0563 19.3659Z" fill="#263238" fill-opacity="0.2"/>
<path d="M18.0563 19.3659C19.2074 19.3659 20.1405 18.4328 20.1405 17.2818C20.1405 16.1307 19.2074 15.1976 18.0563 15.1976C16.9053 15.1976 15.9722 16.1307 15.9722 17.2818C15.9722 18.4328 16.9053 19.3659 18.0563 19.3659Z" fill="white"/>
<path d="M30.0981 19.3659C31.2491 19.3659 32.1822 18.2946 32.1822 16.973C32.1822 15.6514 31.2491 14.5801 30.0981 14.5801C28.947 14.5801 28.0139 15.6514 28.0139 16.973C28.0139 18.2946 28.947 19.3659 30.0981 19.3659Z" fill="#263238" fill-opacity="0.2"/>
<path d="M30.0981 19.3659C31.2491 19.3659 32.1822 18.4328 32.1822 17.2818C32.1822 16.1307 31.2491 15.1976 30.0981 15.1976C28.947 15.1976 28.0139 16.1307 28.0139 17.2818C28.0139 18.4328 28.947 19.3659 30.0981 19.3659Z" fill="white"/>
<path fill-rule="evenodd" clip-rule="evenodd" d="M10.7933 9.94033C10.6462 9.93627 10.501 9.97431 10.3748 10.05C10.2487 10.1257 10.1468 10.2359 10.0811 10.3676C10.0155 10.4993 9.9888 10.6469 10.0043 10.7933C10.0198 10.9396 10.0768 11.0785 10.1685 11.1935L12.3938 14.0737C12.3154 14.2794 12.2684 14.5007 12.2684 14.7346V17.2047V18.974V19.0573C12.2684 20.0836 13.0946 20.9099 14.1209 20.9099H33.8817C34.908 20.9099 35.7343 20.0836 35.7343 19.0573V16.5872V14.8178V14.7346C35.7343 14.4998 35.6867 14.2776 35.6076 14.0713L37.8317 11.1935C37.9246 11.0769 37.9818 10.936 37.9963 10.7877C38.0109 10.6393 37.9822 10.4899 37.9137 10.3576C37.8452 10.2252 37.7399 10.1155 37.6104 10.0416C37.4809 9.96782 37.3328 9.93308 37.184 9.94157C37.0717 9.9479 36.9621 9.97872 36.8629 10.0318C36.7638 10.085 36.6774 10.1591 36.6099 10.2491L34.4908 12.9918C34.2992 12.9251 34.0966 12.8821 33.8817 12.8821H14.1209C13.9057 12.8821 13.7025 12.9246 13.5106 12.9918L11.3903 10.2491C11.3205 10.1559 11.2305 10.0798 11.1272 10.0263C11.0238 9.97287 10.9096 9.94346 10.7933 9.94033ZM14.1209 21.5274C13.9926 21.5274 13.8678 21.5403 13.747 21.565C12.9013 21.7355 12.2684 22.4727 12.2684 23.3621V23.38V35.5942V35.6121V35.7303C12.2684 36.7566 13.0946 37.5829 14.1209 37.5829H33.8817C34.908 37.5829 35.7343 36.7566 35.7343 35.7303V23.3798V23.362C35.7343 22.4725 35.1013 21.7354 34.2556 21.5649C34.1348 21.5408 34.01 21.5272 33.8817 21.5272H14.1209V21.5274Z" fill="url(#paint0_radial)"/>
<defs>
<filter id="filter0_f" x="9.09894" y="9.50219" width="29.8021" height="29.445" filterUnits="userSpaceOnUse" color-interpolation-filters="sRGB">
<feFlood flood-opacity="0" result="BackgroundImageFix"/>
<feBlend mode="normal" in="SourceGraphic" in2="BackgroundImageFix" result="shape"/>
<feGaussianBlur stdDeviation="0.450532" result="effect1_foregroundBlur"/>
</filter>
<radialGradient id="paint0_radial" cx="0" cy="0" r="1" gradientUnits="userSpaceOnUse" gradientTransform="translate(10.0016 9.94086) rotate(90) scale(27.6467 29.6412)">
<stop stop-color="white" stop-opacity="0.0980392"/>
<stop offset="1" stop-color="white" stop-opacity="0"/>
</radialGradient>
</defs>
</svg>
