<svg width="126" height="126" viewBox="0 0 126 126" fill="none" xmlns="http://www.w3.org/2000/svg">
<path d="M58.3333 90.9999H67.6666V81.6666H58.3333V90.9999ZM63 16.3333C56.8716 16.3333 50.8033 17.5403 45.1414 19.8855C39.4796 22.2308 34.3351 25.6682 30.0017 30.0016C21.25 38.7533 16.3333 50.6231 16.3333 62.9999C16.3333 75.3767 21.25 87.2465 30.0017 95.9982C34.3351 100.332 39.4796 103.769 45.1414 106.114C50.8033 108.46 56.8716 109.667 63 109.667C75.3768 109.667 87.2466 104.75 95.9983 95.9982C104.75 87.2465 109.667 75.3767 109.667 62.9999C109.667 56.8716 108.46 50.8032 106.114 45.1414C103.769 39.4795 100.332 34.335 95.9983 30.0016C91.6649 25.6682 86.5204 22.2308 80.8585 19.8855C75.1967 17.5403 69.1283 16.3333 63 16.3333ZM63 100.333C42.42 100.333 25.6666 83.5799 25.6666 62.9999C25.6666 42.4199 42.42 25.6666 63 25.6666C83.58 25.6666 100.333 42.4199 100.333 62.9999C100.333 83.5799 83.58 100.333 63 100.333ZM63 34.9999C58.0493 34.9999 53.3013 36.9666 49.8007 40.4673C46.3 43.9679 44.3333 48.7159 44.3333 53.6666H53.6666C53.6666 51.1912 54.65 48.8173 56.4003 47.0669C58.1507 45.3166 60.5246 44.3333 63 44.3333C65.4753 44.3333 67.8493 45.3166 69.5996 47.0669C71.35 48.8173 72.3333 51.1912 72.3333 53.6666C72.3333 62.9999 58.3333 61.8333 58.3333 76.9999H67.6666C67.6666 66.4999 81.6666 65.3333 81.6666 53.6666C81.6666 48.7159 79.7 43.9679 76.1993 40.4673C72.6986 36.9666 67.9507 34.9999 63 34.9999Z" fill="#4CAF50"/>
</svg>
