<svg id="visual" viewBox="0 0 960 540" width="960" height="540" xmlns="http://www.w3.org/2000/svg" xmlns:xlink="http://www.w3.org/1999/xlink" version="1.1"><rect x="0" y="0" width="960" height="540" fill="#1B7FDB"></rect><path d="M0 395L22.8 392C45.7 389 91.3 383 137 374.7C182.7 366.3 228.3 355.7 274 355.5C319.7 355.3 365.3 365.7 411.2 374.7C457 383.7 503 391.3 548.8 382.3C594.7 373.3 640.3 347.7 686 345.3C731.7 343 777.3 364 823 376.7C868.7 389.3 914.3 393.7 937.2 395.8L960 398L960 541L937.2 541C914.3 541 868.7 541 823 541C777.3 541 731.7 541 686 541C640.3 541 594.7 541 548.8 541C503 541 457 541 411.2 541C365.3 541 319.7 541 274 541C228.3 541 182.7 541 137 541C91.3 541 45.7 541 22.8 541L0 541Z" fill="#00d663"></path><path d="M0 360L22.8 369.8C45.7 379.7 91.3 399.3 137 398.8C182.7 398.3 228.3 377.7 274 379.8C319.7 382 365.3 407 411.2 412.3C457 417.7 503 403.3 548.8 394.5C594.7 385.7 640.3 382.3 686 389C731.7 395.7 777.3 412.3 823 414.5C868.7 416.7 914.3 404.3 937.2 398.2L960 392L960 541L937.2 541C914.3 541 868.7 541 823 541C777.3 541 731.7 541 686 541C640.3 541 594.7 541 548.8 541C503 541 457 541 411.2 541C365.3 541 319.7 541 274 541C228.3 541 182.7 541 137 541C91.3 541 45.7 541 22.8 541L0 541Z" fill="#00c961"></path><path d="M0 443L22.8 441.8C45.7 440.7 91.3 438.3 137 439.2C182.7 440 228.3 444 274 438.2C319.7 432.3 365.3 416.7 411.2 415.5C457 414.3 503 427.7 548.8 429.3C594.7 431 640.3 421 686 417.7C731.7 414.3 777.3 417.7 823 422.2C868.7 426.7 914.3 432.3 937.2 435.2L960 438L960 541L937.2 541C914.3 541 868.7 541 823 541C777.3 541 731.7 541 686 541C640.3 541 594.7 541 548.8 541C503 541 457 541 411.2 541C365.3 541 319.7 541 274 541C228.3 541 182.7 541 137 541C91.3 541 45.7 541 22.8 541L0 541Z" fill="#00bd5e"></path><path d="M0 482L22.8 478.8C45.7 475.7 91.3 469.3 137 465.5C182.7 461.7 228.3 460.3 274 464.2C319.7 468 365.3 477 411.2 473.5C457 470 503 454 548.8 445.3C594.7 436.7 640.3 435.3 686 441C731.7 446.7 777.3 459.3 823 463.3C868.7 467.3 914.3 462.7 937.2 460.3L960 458L960 541L937.2 541C914.3 541 868.7 541 823 541C777.3 541 731.7 541 686 541C640.3 541 594.7 541 548.8 541C503 541 457 541 411.2 541C365.3 541 319.7 541 274 541C228.3 541 182.7 541 137 541C91.3 541 45.7 541 22.8 541L0 541Z" fill="#00b15b"></path><path d="M0 513L22.8 508C45.7 503 91.3 493 137 493.3C182.7 493.7 228.3 504.3 274 504C319.7 503.7 365.3 492.3 411.2 490.2C457 488 503 495 548.8 495.5C594.7 496 640.3 490 686 487C731.7 484 777.3 484 823 482.8C868.7 481.7 914.3 479.3 937.2 478.2L960 477L960 541L937.2 541C914.3 541 868.7 541 823 541C777.3 541 731.7 541 686 541C640.3 541 594.7 541 548.8 541C503 541 457 541 411.2 541C365.3 541 319.7 541 274 541C228.3 541 182.7 541 137 541C91.3 541 45.7 541 22.8 541L0 541Z" fill="#00a558"></path></svg>