<svg width="126" height="126" viewBox="0 0 126 126" fill="none" xmlns="http://www.w3.org/2000/svg">
<path fill-rule="evenodd" clip-rule="evenodd" d="M16.9165 57.2126C45.6684 44.6858 64.8408 36.4275 74.4338 32.4374C101.824 21.045 107.515 19.066 111.225 19.0007C112.041 18.9863 113.865 19.1885 115.046 20.1474C116.044 20.957 116.319 22.0507 116.45 22.8183C116.581 23.5859 116.745 25.3346 116.615 26.701C115.131 42.2963 108.708 80.142 105.441 97.609C104.058 105 101.336 107.478 98.7008 107.721C92.9733 108.248 88.6241 103.936 83.0768 100.299C74.3963 94.609 69.4923 91.0668 61.0664 85.5143C51.3288 79.0973 57.6413 75.5705 63.1907 69.8066C64.643 68.2982 89.8784 45.3446 90.3669 43.2624C90.428 43.002 90.4846 42.0313 89.908 41.5187C89.3313 41.0061 88.4801 41.1814 87.8659 41.3208C86.9953 41.5184 73.1281 50.6841 46.2643 68.8179C42.3282 71.5208 38.7629 72.8377 35.5686 72.7687C32.0471 72.6926 25.2731 70.7775 20.2374 69.1406C14.0608 67.1329 9.15181 66.0714 9.57928 62.6616C9.80193 60.8856 12.2477 59.0692 16.9165 57.2126Z" fill="#2196F3"/>
</svg>
